<?xml version="1.0" encoding="UTF-8"?>
<svg width="133px" height="45px" viewBox="0 0 133 45" version="1.1" xmlns="http://www.w3.org/2000/svg" xmlns:xlink="http://www.w3.org/1999/xlink">
    <!-- Generator: Sketch 53 (72520) - https://sketchapp.com -->
    <title>Logo-Mobile</title>
    <desc>Created with Sketch.</desc>
    <g id="Symbols" stroke="none" stroke-width="1" fill="none" fill-rule="evenodd">
        <g id="Logo-Mobile">
            <g id="Group-12" transform="translate(58.000000, 10.000000)" fill="#000000">
                <path d="M8.79480432,12.1963901 C8.79480432,15.237305 10.8787957,17.4121206 13.8246445,17.4121206 C16.7704933,17.4121206 18.8544847,15.237305 18.8544847,12.1963901 C18.8544847,9.15547518 16.7704933,6.98065957 13.8246445,6.98065957 C10.8787957,6.98065957 8.79480432,9.15547518 8.79480432,12.1963901 M21.1394091,12.1963901 C21.1394091,16.4659574 18.0733011,19.547156 13.8246445,19.547156 C9.57648898,19.547156 6.50987991,16.4659574 6.50987991,12.1963901 C6.50987991,7.9268227 9.57648898,4.84562411 13.8246445,4.84562411 C18.0733011,4.84562411 21.1394091,7.9268227 21.1394091,12.1963901" id="Fill-1"></path>
                <path d="M31.8870721,13.5255504 C32.3681089,14.0084511 32.8090592,14.6529901 32.9894479,15.0961106 L33.0691197,15.0759688 C32.9493616,14.6127064 32.8691888,13.7063234 32.8691888,12.5386 L32.8691888,5.14755035 L34.9531801,5.14755035 L34.9531801,19.4462454 L34.7727914,19.4462454 L26.2358929,10.8673305 C25.7548562,10.3839262 25.3139058,9.73888369 25.1335171,9.29626667 L25.0533443,9.31640851 C25.1741045,9.77967092 25.2542773,10.6855504 25.2542773,11.8336355 L25.2542773,19.2443234 L23.1697849,19.2443234 L23.1697849,4.94663546 L23.3501737,4.94663546 L31.8870721,13.5255504 Z" id="Fill-3"></path>
                <path d="M39.8593037,16.7676319 C39.8593037,17.0088305 39.8392605,17.1704688 39.7991741,17.271178 L39.8392605,17.3114617 C39.9790618,17.2510362 40.099321,17.2308943 40.3398393,17.2308943 L45.8712605,17.2308943 L45.8712605,19.2445752 L37.7748112,19.2445752 L37.7748112,5.14780213 L39.8593037,5.14780213 L39.8593037,16.7676319 Z" id="Fill-5"></path>
                <polygon id="Fill-7" points="47.2393089 19.2445248 49.3238013 19.2445248 49.3238013 5.14775177 47.2393089 5.14775177"></polygon>
                <path d="M60.8292976,13.5255504 C61.3103343,14.0084511 61.7512847,14.6529901 61.9316734,15.0961106 L62.0113451,15.0759688 C61.891587,14.6127064 61.8114143,13.7063234 61.8114143,12.5386 L61.8114143,5.14755035 L63.8954056,5.14755035 L63.8954056,19.4462454 L63.7150168,19.4462454 L55.1781184,10.8673305 C54.6970816,10.3839262 54.2561313,9.73888369 54.0757425,9.29626667 L53.9955698,9.31640851 C54.11633,9.77967092 54.1965028,10.6855504 54.1965028,11.8336355 L54.1965028,19.2443234 L52.1120104,19.2443234 L52.1120104,4.94663546 L52.2923991,4.94663546 L60.8292976,13.5255504 Z" id="Fill-9"></path>
                <path d="M74.6730834,7.12109858 L69.2819646,7.12109858 C69.0419473,7.12109858 68.921187,7.10146028 68.7813857,7.04103475 L68.7412994,7.08131844 C68.7813857,7.18152411 68.8014289,7.34265887 68.8014289,7.60450284 L68.8014289,10.1217298 C68.8014289,10.3634319 68.7813857,10.5250702 68.7412994,10.6252759 L68.7813857,10.6655596 C68.921187,10.605134 69.0419473,10.5849922 69.2819646,10.5849922 L74.0116579,10.5849922 L74.0116579,12.5588929 L69.2819646,12.5588929 C69.0419473,12.5588929 68.921187,12.5387511 68.7813857,12.4783255 L68.7412994,12.5186092 C68.7813857,12.6193184 68.8014289,12.8000915 68.8014289,13.0422972 L68.8014289,16.787673 C68.8014289,17.049517 68.7813857,17.2106518 68.7412994,17.311361 L68.7813857,17.3516447 C68.921187,17.2912191 69.0419473,17.2710773 69.2819646,17.2710773 L74.7532562,17.2710773 L74.7532562,19.2444745 L66.7169365,19.2444745 L66.7169365,5.14770142 L74.6730834,5.14770142 L74.6730834,7.12109858 Z" id="Fill-10"></path>
                <polygon id="Fill-11" points="1.42108547e-13 24.4859362 0.75161987 24.4859362 0.75161987 0 1.42108547e-13 0"></polygon>
            </g>
            <g id="Group-15" fill="#E00122">
                <polygon id="Fill-34" points="24.318711 2.48117305 32.7388579 2.48117305 32.7388579 0.0127900709 24.318711 0.0127900709"></polygon>
                <path d="M18.0985054,23.9884326 C18.0985054,17.2509858 22.0179525,11.8031206 27.8079309,8.74911348 L27.8079309,5.43829787 C19.4869978,8.17658156 13.5196371,15.2458652 13.5196371,23.9884326 C13.5196371,28.3118794 14.6415551,31.6901702 16.5962678,34.7159787 C11.4506782,33.807078 9.23390065,30.2001773 9.23390065,23.9884326 L9.23390065,-7.10542736e-15 L9.22788769,-7.10542736e-15 L2.27373675e-13,-7.10542736e-15 L2.27373675e-13,2.46989362 L4.4130108,2.46989362 L4.4130108,23.9884326 C4.4130108,32.6101489 10.0055637,37.0881844 18.5179093,37.2296809 C21.7729244,40.8662908 26.3793521,43.4046667 31.6136328,44.1544468 C32.0265227,44.216383 32.4198704,44.2586809 32.7460734,44.2878865 L32.7460734,41.8351135 C32.3256674,41.7620993 32.0335378,41.6931135 32.0335378,41.6931135 C24.0127516,39.6416667 18.0985054,32.7823617 18.0985054,23.9884326" id="Fill-35"></path>
                <path d="M37.5652596,23.9889362 L37.5652596,6.62868085 C43.2600328,6.62868085 46.6753935,10.033156 46.8592898,13.9336241 L48.9773546,14.3525745 L50.4610523,5.66791489 L47.9401192,5.17544681 L47.6319551,7.02799291 C43.0831516,4.72930496 39.2664259,4.31287234 35.4742531,4.31287234 C34.5447499,4.31287234 33.6287758,4.36775887 32.7283352,4.47602128 L32.7463741,23.9889362 C32.7463741,27.7846667 32.2006981,30.0239362 30.2680328,32.4127589 C28.1409486,30.0541489 27.804724,27.3767943 27.804724,23.9889362 C27.804724,22.184227 27.8082315,13.5982624 27.8082315,13.5982624 C24.9861495,16.341078 23.221346,19.7495816 23.221346,23.9889362 C23.221346,32.8583972 30.0365339,39.7846738 38.3534583,39.7846738 C41.2086117,39.7846738 44.5007067,39.083234 46.9028838,37.4416738 L46.2970782,36.531766 C43.0545901,38.1949787 36.4719032,38.5817021 32.4502359,34.7995674 C35.8500631,32.2778085 37.5652596,29.050078 37.5652596,23.9889362" id="Fill-36"></path>
            </g>
        </g>
    </g>
</svg>